<svg xmlns="http://www.w3.org/2000/svg" width="306" height="58" viewBox="0 0 306 58" fill="none">
<g clip-path="url(#clip0_3408_5207)">
<path d="M111.468 1.87572C111.468 1.13584 111.311 1.0629 110.686 1.0629H109.395C107.655 1.0629 108.114 3.08452 107.426 3.08452C107.103 3.08452 107.197 2.74064 107.228 2.54264L107.478 0.5106C107.489 0.354289 107.489 0.145874 107.728 0.145874C109.155 0.145874 110.186 0.208398 112.436 0.208398C114.686 0.208398 115.717 0.145874 117.144 0.145874C117.373 0.145874 117.373 0.36471 117.394 0.5106L117.561 1.92782C117.592 2.11539 117.759 2.70938 117.363 2.70938C116.748 2.70938 117.238 1.00037 115.467 1.0629H114.155C113.519 1.0629 113.374 1.13584 113.374 1.87572V8.83677C113.374 10.7333 115.342 10.2853 115.342 10.7125C115.342 11.0876 115.03 11.0355 114.592 11.0355C113.978 11.0355 113.467 10.973 112.436 10.973C111.405 10.973 110.895 11.0355 110.28 11.0355C109.999 11.0355 109.739 11.046 109.739 10.7125C109.739 10.1081 111.478 10.848 111.478 9.02434V1.87572H111.468Z" fill="#58595B"/>
<path d="M131.383 8.86825C131.383 10.8274 132.987 10.2542 132.987 10.8586C132.987 11.0566 132.862 11.0462 132.664 11.0462C132.153 11.0462 131.247 10.9837 130.612 10.9837C130.06 10.9837 129.456 11.0462 128.674 11.0462C128.456 11.0462 128.362 10.9837 128.362 10.8795C128.362 10.3376 129.487 10.7544 129.487 9.26424V6.49233C129.487 5.84624 129.529 5.67951 128.852 5.67951H124.737C124.029 5.67951 123.977 5.83582 123.977 6.51317V8.93078C123.977 10.8378 125.883 10.2855 125.883 10.8378C125.883 10.9316 125.914 11.0566 125.425 11.0566C124.789 11.0566 124.289 10.9941 123.175 10.9941C122.529 10.9941 121.883 11.0566 121.113 11.0566C120.925 11.0566 120.769 11.0253 120.769 10.8274C120.769 10.2125 122.081 10.7648 122.081 8.85783V1.96973C122.081 0.291988 120.342 0.969336 120.342 0.385775C120.342 0.156518 120.8 0.135677 121.092 0.135677C121.55 0.135677 122.019 0.198201 122.81 0.198201C123.737 0.198201 124.352 0.135677 124.8 0.135677C125.019 0.135677 125.154 0.208622 125.154 0.364933C125.154 0.844287 123.967 0.396196 123.967 1.76131V4.21018C123.967 4.62701 124.029 4.82501 124.352 4.82501H128.924C129.372 4.82501 129.466 4.4707 129.466 4.13724V1.96973C129.466 0.281567 127.768 0.833866 127.768 0.385775C127.768 0.104415 127.904 0.135677 128.122 0.135677C128.758 0.135677 129.154 0.198201 130.112 0.198201C130.914 0.198201 131.487 0.135677 132.143 0.135677C132.403 0.135677 132.466 0.187781 132.466 0.32325C132.466 0.906811 131.362 0.250305 131.362 1.75089V8.86825H131.383Z" fill="#58595B"/>
<path d="M139.038 4.09538C139.038 4.76231 139.038 4.86651 139.694 4.86651H140.663C141.985 4.86651 142.038 3.44929 142.34 3.44929C142.444 3.44929 142.621 3.41803 142.631 3.83486L142.735 6.57551C142.756 6.77351 142.84 7.32581 142.475 7.32581C141.985 7.32581 142.412 5.68975 140.808 5.68975H139.673C138.965 5.68975 139.027 5.87732 139.027 6.77351V8.74303C139.027 9.70173 138.965 10.254 140.069 10.254C143.881 10.254 143.673 8.24283 144.256 8.24283C144.319 8.24283 144.423 8.28451 144.423 8.57629C144.423 9.77468 143.517 11.0356 142.256 11.0356C139.913 11.0356 138.996 10.9731 138.225 10.9731C137.746 10.9731 137.101 11.0356 136.257 11.0356C136.059 11.0356 135.965 10.9626 135.965 10.8689C135.965 10.1602 137.132 10.9939 137.132 9.11817V1.90702C137.132 0.521065 135.392 1.01084 135.392 0.396016C135.392 0.260547 135.517 0.135498 135.736 0.135498C136.371 0.135498 137.475 0.198022 139.829 0.198022C140.923 0.198022 141.985 0.135498 143.339 0.135498C143.537 0.135498 143.652 0.291809 143.652 0.427279L143.714 1.94871C143.735 2.1467 143.808 2.65732 143.454 2.65732C142.725 2.65732 143.933 0.854529 140.965 0.854529C139.1 0.854529 139.038 0.86495 139.038 1.92786V4.08496V4.09538Z" fill="#58595B"/>
<path d="M164.962 5.41904C164.962 8.54526 164.087 11.1504 159.838 11.1504C156.963 11.1504 155.421 9.80617 155.421 6.82584V1.80305C155.421 0.479615 153.817 0.969389 153.817 0.385828C153.817 0.187834 154.015 0.13573 154.14 0.13573C154.338 0.13573 155.494 0.198255 156.265 0.198255C157.036 0.198255 158.14 0.13573 158.432 0.13573C158.567 0.13573 158.598 0.260779 158.598 0.354566C158.598 0.875603 157.307 0.0627852 157.307 2.5846V5.92966C157.307 8.28475 157.921 10.2438 160.681 10.2438C163.743 10.2438 164.139 7.81581 164.139 5.21063V2.15735C164.139 0.385828 162.244 0.865182 162.244 0.312883C162.244 0.0627852 162.504 0.146151 162.702 0.146151C163.15 0.177413 163.566 0.208675 163.993 0.208675C164.504 0.208675 164.983 0.177413 165.743 0.146151C165.931 0.146151 166.024 0.177413 166.024 0.344145C166.024 0.760974 164.952 0.208676 164.952 1.94894V5.42946L164.962 5.41904Z" fill="#58595B"/>
<path d="M170.649 3.09499C170.649 0.135498 168.92 1.13589 168.92 0.406437C168.92 0.270968 168.993 0.145919 169.18 0.145919C169.472 0.145919 169.753 0.208443 170.045 0.208443C170.441 0.208443 170.847 0.145919 171.659 0.145919C172.149 0.145919 171.972 0.250126 172.243 0.541907L178.43 7.33623C178.627 7.55506 178.815 7.73221 178.909 7.73221C179.002 7.73221 179.034 7.54464 179.034 7.15907V2.03207C179.034 0.625273 177.159 0.906633 177.159 0.396016C177.159 0.291809 177.201 0.135498 177.409 0.135498C177.659 0.135498 178.096 0.198022 179.159 0.198022C180.127 0.198022 180.669 0.135498 180.804 0.135498C181.096 0.135498 181.096 0.291809 181.096 0.333492C181.096 0.792004 179.784 0.427279 179.784 2.04249V10.6813C179.784 11.0252 179.784 11.1398 179.596 11.1398C179.377 11.1398 179.304 11.046 179.2 10.921L171.795 2.91783C171.691 2.79279 171.597 2.71984 171.524 2.71984C171.43 2.71984 171.399 2.82405 171.399 2.96994V8.20115C171.399 11.1606 173.368 10.1081 173.368 10.8376C173.368 11.0564 172.982 11.0356 172.784 11.0356C172.034 11.0356 171.503 10.9731 170.972 10.9731C170.482 10.9731 170.066 11.0356 169.649 11.0356C169.483 11.0356 169.17 11.1085 169.17 10.848C169.17 10.2332 170.649 10.5041 170.649 8.94102V3.09499Z" fill="#58595B"/>
<path d="M187.908 9.1286C187.908 11.0252 189.627 10.3166 189.627 10.8063C189.627 10.9731 189.492 11.0356 189.138 11.0356C188.565 11.0356 188.002 10.9731 186.794 10.9731C186.138 10.9731 185.471 11.0356 185.075 11.0356C184.94 11.0356 184.909 10.9314 184.909 10.848C184.909 10.3061 186.013 10.7126 186.013 9.24323V1.86535C186.013 0.46897 184.273 0.89622 184.273 0.354342C184.273 0.0938234 184.659 0.135506 184.794 0.135506C185.398 0.135506 185.992 0.198031 186.534 0.198031C187.075 0.198031 187.638 0.135506 188.523 0.135506C188.981 0.135506 189.065 0.166769 189.065 0.354342C189.065 0.875379 187.908 0.32308 187.908 1.78198V9.1286Z" fill="#58595B"/>
<path d="M198.73 10.7961C198.563 11.1921 198.48 11.2859 198.313 11.2859C198.157 11.2859 198.001 11.1296 197.73 10.4835L193.897 1.52167C193.637 0.917267 193.418 0.750535 192.793 0.594224C192.751 0.573383 192.543 0.490017 192.543 0.375389C192.543 0.0106633 193.022 0.125291 193.251 0.125291C193.762 0.125291 194.282 0.187816 194.803 0.187816C195.793 0.187816 196.23 0.125291 196.48 0.125291C196.97 0.125291 197.053 0.10445 197.053 0.375389C197.053 0.792218 196.126 0.562962 196.126 1.20905C196.126 1.66756 196.324 2.39701 196.709 3.33488L198.709 8.29515C198.761 8.39936 198.834 8.61819 198.928 8.61819C199.021 8.61819 199.084 8.39936 199.126 8.29515L201.24 3.61624C201.698 2.58459 201.73 2.04271 201.73 1.80303C201.73 0.354548 200.178 0.927688 200.178 0.38581C200.178 0.0940291 200.625 0.135712 200.813 0.135712C201.261 0.135712 201.688 0.198237 202.136 0.198237C202.584 0.198237 203 0.135712 203.427 0.135712C203.75 0.135712 203.969 0.0940291 203.969 0.354548C203.969 0.708853 203.334 0.625487 202.917 1.54251L198.73 10.7961Z" fill="#58595B"/>
<path d="M210.186 4.09538C210.186 4.76231 210.186 4.86651 210.843 4.86651H211.811C213.134 4.86651 213.186 3.44929 213.488 3.44929C213.592 3.44929 213.769 3.41803 213.78 3.83486L213.884 6.57551C213.905 6.77351 213.988 7.32581 213.624 7.32581C213.134 7.32581 213.561 5.68975 211.957 5.68975H210.822C210.114 5.68975 210.176 5.87732 210.176 6.77351V8.74303C210.176 9.70173 210.114 10.254 211.218 10.254C215.03 10.254 214.821 8.24283 215.405 8.24283C215.467 8.24283 215.571 8.28451 215.571 8.57629C215.571 9.77468 214.665 11.0356 213.405 11.0356C211.061 11.0356 210.145 10.9731 209.374 10.9731C208.895 10.9731 208.249 11.0356 207.406 11.0356C207.208 11.0356 207.114 10.9626 207.114 10.8689C207.114 10.1602 208.28 10.9939 208.28 9.11817V1.90702C208.28 0.521065 206.541 1.01084 206.541 0.396016C206.541 0.260547 206.666 0.135498 206.885 0.135498C207.52 0.135498 208.624 0.198022 210.978 0.198022C212.072 0.198022 213.134 0.135498 214.488 0.135498C214.686 0.135498 214.801 0.291809 214.801 0.427279L214.863 1.94871C214.884 2.1467 214.957 2.65732 214.603 2.65732C213.884 2.65732 215.082 0.854529 212.113 0.854529C210.249 0.854529 210.186 0.86495 210.186 1.92786V4.08496V4.09538Z" fill="#58595B"/>
<path d="M221.925 4.83525C221.925 5.22082 222.498 5.22082 222.956 5.22082C225.3 5.22082 225.393 4.3559 225.393 3.44929C225.393 1.93829 224.529 0.802425 222.977 0.802425C222.404 0.802425 221.925 0.802425 221.925 1.72987V4.83525ZM220.029 2.07376C220.029 0.354334 218.353 0.917053 218.353 0.364754C218.353 0.208443 218.509 0.135498 218.696 0.135498C219.405 0.135498 219.529 0.198022 220.498 0.198022C221.529 0.198022 222.581 0.135498 223.612 0.135498C226.977 0.135498 227.289 2.30301 227.289 3.01162C227.289 4.00159 226.841 4.56431 226.393 4.93946C225.946 5.29376 225.498 5.42923 225.498 5.58554C225.498 5.67933 226.81 7.90937 227.914 9.84762C228.049 10.0977 228.352 10.0977 228.466 10.0977C228.622 10.0977 228.768 10.0039 228.924 10.0039C229.06 10.0039 229.154 10.0977 229.154 10.2228C229.154 10.7021 228.133 11.0356 227.518 11.0356C226.3 11.0356 225.81 10.0665 225.331 9.17028L224.039 6.74224C223.685 6.0649 223.404 5.92943 222.644 5.92943C221.831 5.92943 221.915 6.03363 221.915 6.57551V9.24322C221.915 10.8897 223.435 10.254 223.435 10.8168C223.435 10.9522 223.31 11.046 222.956 11.046C222.696 11.046 222.279 10.9835 221.633 10.9835C220.8 10.9835 220.029 11.046 219.259 11.046C219.092 11.046 218.769 11.0877 218.769 10.7855C218.769 10.2957 220.019 10.7959 220.019 8.85765V2.07376H220.029Z" fill="#58595B"/>
<path d="M232.497 7.8885C232.455 7.66966 232.299 7.22157 232.685 7.22157C232.935 7.22157 232.966 7.35704 233.028 7.56545C233.518 9.0452 234.476 10.4416 236.184 10.4416C237.382 10.4416 238.309 9.7017 238.309 8.47206C238.309 7.15905 237.34 6.96105 234.861 5.86687C233.539 5.28331 232.633 4.67891 232.633 3.0637C232.622 1.29217 233.862 0 235.653 0C236.913 0 237.559 0.604403 238.028 0.604403C238.226 0.604403 238.611 0.354305 238.809 0.354305C239.038 0.354305 238.996 0.583561 239.028 0.937866L239.194 3.00117C239.226 3.34506 239.184 3.52221 238.84 3.52221C238.497 3.52221 238.257 0.656506 235.611 0.656506C234.591 0.656506 233.903 1.24007 233.903 2.27172C233.903 3.30337 234.747 3.50137 236.809 4.40797C238.455 5.13742 239.476 5.79393 239.476 7.75303C239.476 9.71212 238.059 11.1398 236.049 11.1398C235.111 11.1398 234.33 10.7646 233.435 10.5666C233.049 10.4728 233.06 10.3478 232.987 9.98306L232.508 7.87808L232.497 7.8885Z" fill="#58595B"/>
<path d="M246.496 9.12848C246.496 11.0251 248.214 10.3164 248.214 10.8062C248.214 10.9729 248.079 11.0355 247.725 11.0355C247.152 11.0355 246.589 10.9729 245.381 10.9729C244.725 10.9729 244.058 11.0355 243.663 11.0355C243.527 11.0355 243.496 10.9313 243.496 10.8479C243.496 10.306 244.6 10.7124 244.6 9.24311V1.86523C244.6 0.468848 242.861 0.896098 242.861 0.35422C242.861 0.0937013 243.246 0.135384 243.381 0.135384C243.985 0.135384 244.579 0.197909 245.121 0.197909C245.662 0.197909 246.225 0.135384 247.11 0.135384C247.568 0.135384 247.652 0.166646 247.652 0.35422C247.652 0.875257 246.496 0.322958 246.496 1.78186V9.12848Z" fill="#58595B"/>
<path d="M255.464 1.87566C255.464 1.13578 255.307 1.06284 254.682 1.06284H253.391C251.651 1.06284 252.11 3.08446 251.422 3.08446C251.099 3.08446 251.193 2.74058 251.224 2.54258L251.474 0.510539C251.485 0.354228 251.485 0.145813 251.724 0.145813C253.151 0.145813 254.182 0.208337 256.432 0.208337C258.682 0.208337 259.713 0.145813 261.14 0.145813C261.369 0.145813 261.369 0.364648 261.39 0.510539L261.557 1.92776C261.588 2.11533 261.755 2.70931 261.359 2.70931C260.744 2.70931 261.234 1.00031 259.463 1.06284H258.151C257.515 1.06284 257.359 1.13578 257.359 1.87566V8.83671C257.359 10.7333 259.328 10.2852 259.328 10.7124C259.328 11.0876 259.015 11.0355 258.578 11.0355C257.963 11.0355 257.453 10.973 256.422 10.973C255.391 10.973 254.88 11.0355 254.266 11.0355C253.985 11.0355 253.724 11.0459 253.724 10.7124C253.724 10.108 255.464 10.8479 255.464 9.02428V1.87566Z" fill="#58595B"/>
<path d="M265.984 1.54252C265.38 0.437926 264.442 0.823494 264.442 0.323298C264.442 0.135725 264.63 0.135725 264.984 0.135725C265.265 0.135725 265.63 0.198249 266.401 0.198249C267.046 0.198249 267.713 0.198249 268.65 0.135725C268.869 0.114884 268.911 0.239932 268.911 0.333719C268.911 0.688024 268.067 0.562975 268.067 1.08401C268.067 1.21948 268.098 1.40706 268.286 1.79262L269.671 4.65832C269.921 5.16894 270.025 5.36694 270.15 5.36694C270.244 5.36694 270.348 5.24189 270.536 4.90842L271.942 2.36576C272.233 1.84473 272.223 1.62589 272.223 1.52168C272.223 0.500451 270.733 0.844335 270.733 0.364981C270.733 0.20867 270.838 0.135725 271.025 0.135725C271.223 0.135725 271.546 0.198249 272.348 0.198249C273.514 0.198249 273.691 0.135725 274.118 0.135725C274.316 0.135725 274.4 0.198249 274.4 0.302457C274.4 0.719286 273.702 0.406664 272.796 2.10524L270.785 5.91923C270.629 6.23186 270.588 6.33606 270.588 6.88836V9.18093C270.588 11.1192 272.483 10.0563 272.483 10.8482C272.483 11.015 272.254 11.0358 271.994 11.0358C271.869 11.0358 271.629 10.9733 269.702 10.9733C268.317 10.9733 267.869 11.0358 267.442 11.0358C267.192 11.0358 267.025 11.0046 267.025 10.8691C267.025 10.1709 268.702 11.0254 268.702 9.0663V7.06552C268.702 6.5549 268.64 6.44027 268.452 6.09639L266.026 1.54252H265.984Z" fill="#58595B"/>
<path d="M289.439 10.4835C292.085 10.4418 292.949 8.37851 292.949 5.81501C292.949 2.40743 291.074 0.625485 289.085 0.656747C286.481 0.69843 285.721 2.82426 285.721 5.06472C285.721 7.30518 286.689 10.5252 289.45 10.4835M289.543 0.000240854C292.543 -0.0310214 294.834 1.95934 294.834 5.22103C294.834 7.37812 293.897 11.1504 288.991 11.1504C285.898 11.1504 283.825 9.06628 283.825 5.95048C283.825 2.57416 285.877 0.0419238 289.554 0.0106616" fill="#58595B"/>
<path d="M301.303 4.09538C301.303 4.76231 301.303 4.86651 301.97 4.86651H302.938C304.261 4.86651 304.303 3.44929 304.615 3.44929C304.719 3.44929 304.896 3.41803 304.907 3.83486L305.011 6.57551C305.032 6.77351 305.115 7.32581 304.751 7.32581C304.261 7.32581 304.688 5.68975 303.084 5.68975H301.949C301.241 5.68975 301.303 5.87732 301.303 6.77351V9.05565C301.303 10.7646 303.042 10.3791 303.042 10.7959C303.042 11.1085 302.72 11.046 302.334 11.046C301.751 11.046 301.178 10.9835 300.501 10.9835C300.022 10.9835 299.376 11.046 298.532 11.046C298.335 11.046 298.241 10.9731 298.241 10.8793C298.241 10.1707 299.407 11.0043 299.407 9.12859V1.90702C299.407 0.521065 297.668 1.01084 297.668 0.396016C297.668 0.260547 297.793 0.135498 298.012 0.135498C298.647 0.135498 299.751 0.198022 302.105 0.198022C303.199 0.198022 304.261 0.135498 305.615 0.135498C305.813 0.135498 305.928 0.291809 305.928 0.427279L305.99 1.94871C306 2.1467 306.084 2.65732 305.73 2.65732C305.011 2.65732 306.209 0.854529 303.24 0.854529C301.376 0.854529 301.313 0.86495 301.313 1.92786V4.08496L301.303 4.09538Z" fill="#58595B"/>
<path d="M117.217 20.5706C117.217 20.3205 117.363 18.9658 116.863 18.9345H111.061C108.853 18.9345 108.78 19.466 108.145 21.4251C108.041 21.7794 107.999 22.2483 107.541 22.2483C107.332 22.2483 107.187 21.9982 107.187 21.8211L107.582 18.3718C107.614 17.9445 107.582 16.9858 108.228 16.9858C110.999 16.9858 113.738 17.1317 118.331 17.1317C124.768 17.1317 128.049 16.9858 128.757 16.9858C129.58 16.9858 129.757 17.2047 129.788 18.0175L129.965 20.8624C129.997 21.2167 130.038 21.6439 129.57 21.6439C128.257 21.6439 130.174 18.9345 126.549 18.9345H121.456C119.852 18.9345 120.029 18.7886 120.029 20.6748V38.8277C120.029 41.8185 122.914 40.6409 122.914 41.7455C122.914 41.8497 122.945 42.1728 122.591 42.1728C121.737 42.1728 120.737 42.0269 119.706 42.0269C115.717 42.0269 115.04 42.1728 114.832 42.1728C114.509 42.1728 114.405 42.0686 114.405 41.7142C114.405 40.8597 117.217 41.2141 117.217 39.0778V20.5706Z" fill="#58595B"/>
<path d="M137.288 27.3337C137.288 28.5425 137.215 28.5425 138.642 28.5425H142.485C146.183 28.5425 145.225 25.6977 146.079 25.6977C146.36 25.6977 146.474 26.0937 146.474 26.375C146.474 27.6255 146.401 28.8343 146.401 29.9702C146.401 30.8976 146.474 31.8251 146.474 32.7838C146.474 33.1068 146.329 33.2423 146.079 33.2423C144.975 33.2423 146.183 30.1056 143.193 30.1056H137.923C137.173 30.1056 137.288 30.71 137.288 31.2415V37.7961C137.288 39.9011 137.007 40.7556 139.996 40.7556C148.214 40.7556 149.422 37.0875 149.891 37.0875C150.141 37.0875 150.172 37.4418 150.172 37.5148C150.172 38.7965 149.245 40.0366 148.391 40.964C147.256 42.2458 146.464 42.1728 144.902 42.1728C142.194 42.1728 139.496 41.954 136.788 42.027C135.361 42.0582 133.872 42.1728 132.445 42.1728C132.122 42.1728 131.913 42.0999 131.913 41.8185C131.986 41.3913 132.34 41.4642 133.476 40.8911C134.403 40.4638 134.476 39.4635 134.476 37.7961V21.5606C134.476 19.9558 134.476 18.2468 132.549 17.9655C132.268 17.8925 131.486 17.8196 131.486 17.3923C131.486 17.111 131.705 16.9651 132.736 16.9651C139.465 16.9651 141.308 17.111 142.808 17.111C143.516 17.111 146.797 16.9651 147.901 16.9651C148.183 16.9651 148.255 17.3194 148.255 17.7466C148.255 21.6961 147.756 21.9879 147.547 21.9879C146.693 21.9879 147.266 20.2789 146.693 19.4556C145.766 18.2468 142.069 18.4553 140.642 18.4553C137.225 18.4553 137.298 18.3094 137.298 20.6957V27.3129L137.288 27.3337Z" fill="#58595B"/>
<path d="M154.87 23.9886C154.87 16.5899 150.568 18.6532 150.568 17.3298C150.568 17.1109 150.923 16.9755 151.1 16.9755C151.672 16.9755 152.204 17.1214 152.766 17.1214C153.297 17.1214 153.87 16.9755 154.401 16.9755C154.797 16.9755 155.11 17.5486 155.328 17.7987L172.306 36.7019C172.514 36.952 172.66 37.0979 172.733 37.0979C172.806 37.0979 172.837 36.9937 172.837 36.7019V21.8211C172.837 17.1526 168.889 18.5073 168.889 17.3402C168.889 17.0901 169.066 16.9859 169.285 16.9859C170.348 16.9859 171.379 17.1318 172.524 17.1318C173.733 17.1318 175.264 16.9859 176.118 16.9859C176.326 16.9859 176.472 17.0901 176.472 17.3089C176.472 18.2364 174.368 17.5903 174.368 20.1955V40.8077C174.368 41.8393 174.337 42.3395 174.045 42.3395C173.795 42.3395 173.441 42.1624 172.691 41.3391L157.391 24.1137C157.318 24.0407 156.891 23.4363 156.641 23.4363C156.495 23.4363 156.391 23.5405 156.391 24.2491V38.8069C156.391 42.0165 159.526 40.766 159.526 41.7247C159.526 41.9019 159.495 42.1832 159.13 42.1832C158.276 42.1832 157.276 42.0373 155.537 42.0373C154.287 42.0373 152.443 42.1832 152.193 42.1832C151.766 42.1832 151.735 41.9644 151.735 41.7872C151.735 40.5367 154.87 42.1103 154.87 37.1187V23.9782V23.9886Z" fill="#58595B"/>
<path d="M182.763 23.9886C182.763 16.5899 178.461 18.6532 178.461 17.3298C178.461 17.1109 178.815 16.9755 178.992 16.9755C179.565 16.9755 180.096 17.1214 180.659 17.1214C181.19 17.1214 181.763 16.9755 182.294 16.9755C182.69 16.9755 183.002 17.5486 183.221 17.7987L200.198 36.7019C200.407 36.952 200.552 37.0979 200.625 37.0979C200.698 37.0979 200.73 36.9937 200.73 36.7019V21.8211C200.73 17.1526 196.782 18.5073 196.782 17.3402C196.782 17.0901 196.959 16.9859 197.178 16.9859C198.24 16.9859 199.271 17.1318 200.417 17.1318C201.625 17.1318 203.156 16.9859 204.01 16.9859C204.219 16.9859 204.365 17.0901 204.365 17.3089C204.365 18.2364 202.261 17.5903 202.261 20.1955V40.8077C202.261 41.8393 202.229 42.3395 201.938 42.3395C201.688 42.3395 201.334 42.1624 200.584 41.3391L185.283 24.1137C185.21 24.0407 184.783 23.4363 184.533 23.4363C184.387 23.4363 184.283 23.5405 184.283 24.2491V38.8069C184.283 42.0165 187.418 40.766 187.418 41.7247C187.418 41.9019 187.387 42.1832 187.023 42.1832C186.168 42.1832 185.169 42.0373 183.429 42.0373C182.179 42.0373 180.336 42.1832 180.086 42.1832C179.659 42.1832 179.627 41.9644 179.627 41.7872C179.627 40.5367 182.763 42.1103 182.763 37.1187V23.9782V23.9886Z" fill="#58595B"/>
<path d="M213.083 27.3338C213.083 28.5426 213.01 28.5426 214.437 28.5426H218.28C221.978 28.5426 221.019 25.6977 221.873 25.6977C222.155 25.6977 222.269 26.0937 222.269 26.3751C222.269 27.6256 222.196 28.8344 222.196 29.9702C222.196 30.8977 222.269 31.8251 222.269 32.7838C222.269 33.1069 222.123 33.2423 221.873 33.2423C220.769 33.2423 221.978 30.1057 218.988 30.1057H213.718C212.968 30.1057 213.083 30.7101 213.083 31.2416V37.7962C213.083 39.9012 212.801 40.7557 215.791 40.7557C224.009 40.7557 225.217 37.0876 225.685 37.0876C225.935 37.0876 225.967 37.4419 225.967 37.5148C225.967 38.7966 225.04 40.0367 224.186 40.9641C223.05 42.2459 222.269 42.1729 220.696 42.1729C217.988 42.1729 215.291 41.9541 212.583 42.027C211.156 42.0583 209.666 42.1729 208.239 42.1729C207.916 42.1729 207.708 42.1 207.708 41.8186C207.781 41.3914 208.135 41.4643 209.271 40.8912C210.198 40.4639 210.27 39.4635 210.27 37.7962V21.5607C210.27 19.9559 210.27 18.2469 208.344 17.9655C208.062 17.8926 207.281 17.8196 207.281 17.3924C207.281 17.111 207.489 16.9651 208.531 16.9651C215.259 16.9651 217.103 17.111 218.603 17.111C219.311 17.111 222.592 16.9651 223.696 16.9651C223.977 16.9651 224.05 17.3195 224.05 17.7467C224.05 21.6962 223.55 21.9879 223.342 21.9879C222.488 21.9879 223.061 20.2789 222.488 19.4557C221.561 18.2469 217.863 18.4553 216.436 18.4553C213.02 18.4553 213.093 18.3094 213.093 20.6958V27.3129L213.083 27.3338Z" fill="#58595B"/>
<path d="M227.82 35.8786C227.675 35.17 227.852 34.774 228.216 34.774C228.716 34.774 228.716 35.2013 228.893 35.9515C229.32 37.5876 231.455 41.287 236.361 41.287C239.746 41.287 243.048 39.4008 243.048 35.6598C243.048 28.7925 228.602 32.6378 228.602 23.3425C228.602 18.8199 232.403 16.6523 236.497 16.6523C240.798 16.6523 241.975 17.9341 242.475 17.9341C242.798 17.9341 242.871 17.5381 243.225 17.5381C243.433 17.5381 243.621 17.6423 243.652 18.0383L244.183 22.8839C244.215 23.1653 244.142 23.4154 243.787 23.4154C243.392 23.4154 243.152 22.6651 243.038 22.3421C241.975 19.2784 239.371 17.7153 236.236 17.7153C233.424 17.7153 230.435 19.07 230.435 22.3421C230.435 29.0322 244.881 25.1244 244.881 34.9407C244.881 37.9315 242.788 42.4124 234.705 42.4124C232.07 42.4124 228.831 41.0994 228.695 40.4533L227.81 35.8578L227.82 35.8786Z" fill="#58595B"/>
<path d="M247.818 35.8786C247.673 35.17 247.85 34.774 248.214 34.774C248.714 34.774 248.714 35.2013 248.891 35.9515C249.318 37.5876 251.454 41.287 256.359 41.287C259.744 41.287 263.046 39.4008 263.046 35.6598C263.046 28.7925 248.6 32.6378 248.6 23.3425C248.6 18.8199 252.401 16.6523 256.495 16.6523C260.796 16.6523 261.973 17.9341 262.473 17.9341C262.796 17.9341 262.869 17.5381 263.223 17.5381C263.431 17.5381 263.619 17.6423 263.65 18.0383L264.181 22.8839C264.213 23.1653 264.14 23.4154 263.786 23.4154C263.39 23.4154 263.15 22.6651 263.036 22.3421C261.973 19.2784 259.369 17.7153 256.234 17.7153C253.422 17.7153 250.433 19.07 250.433 22.3421C250.433 29.0322 264.879 25.1244 264.879 34.9407C264.879 37.9315 262.786 42.4124 254.703 42.4124C252.068 42.4124 248.829 41.0994 248.693 40.4533L247.808 35.8578L247.818 35.8786Z" fill="#58595B"/>
<path d="M273.087 27.3337C273.087 28.5425 273.014 28.5425 274.441 28.5425H278.284C281.982 28.5425 281.023 25.6977 281.877 25.6977C282.159 25.6977 282.273 26.0937 282.273 26.375C282.273 27.6255 282.2 28.8343 282.2 29.9702C282.2 30.8976 282.273 31.8251 282.273 32.7838C282.273 33.1068 282.127 33.2423 281.877 33.2423C280.773 33.2423 281.982 30.1056 278.992 30.1056H273.722C272.972 30.1056 273.087 30.71 273.087 31.2415V37.7961C273.087 39.9011 272.805 40.7556 275.795 40.7556C284.013 40.7556 285.221 37.0875 285.69 37.0875C285.94 37.0875 285.971 37.4418 285.971 37.5148C285.971 38.7965 285.044 40.0366 284.19 40.964C283.054 42.2458 282.273 42.1728 280.7 42.1728C277.992 42.1728 275.295 41.954 272.587 42.027C271.16 42.0582 269.67 42.1728 268.243 42.1728C267.921 42.1728 267.712 42.0999 267.712 41.8185C267.785 41.3913 268.139 41.4642 269.275 40.8911C270.202 40.4638 270.274 39.4635 270.274 37.7961V21.5606C270.274 19.9558 270.274 18.2468 268.348 17.9655C268.066 17.8925 267.285 17.8196 267.285 17.3923C267.285 17.111 267.493 16.9651 268.535 16.9651C275.264 16.9651 277.107 17.111 278.607 17.111C279.315 17.111 282.586 16.9651 283.7 16.9651C283.981 16.9651 284.054 17.3194 284.054 17.7466C284.054 21.6961 283.554 21.9879 283.346 21.9879C282.492 21.9879 283.065 20.2789 282.492 19.4556C281.565 18.2468 277.867 18.4553 276.44 18.4553C273.024 18.4553 273.097 18.3094 273.097 20.6957V27.3129L273.087 27.3337Z" fill="#58595B"/>
<path d="M293.085 27.3338C293.085 28.5426 293.012 28.5426 294.439 28.5426H298.282C301.98 28.5426 301.022 25.6977 301.876 25.6977C302.157 25.6977 302.271 26.0937 302.271 26.3751C302.271 27.6256 302.199 28.8344 302.199 29.9702C302.199 30.8977 302.271 31.8251 302.271 32.7838C302.271 33.1069 302.126 33.2423 301.876 33.2423C300.772 33.2423 301.98 30.1057 298.991 30.1057H293.72C292.97 30.1057 293.085 30.7101 293.085 31.2416V37.7962C293.085 39.9012 292.804 40.7557 295.793 40.7557C304.011 40.7557 305.219 37.0876 305.688 37.0876C305.938 37.0876 305.969 37.4419 305.969 37.5148C305.969 38.7966 305.042 40.0367 304.188 40.9641C303.053 42.2459 302.261 42.1729 300.699 42.1729C297.991 42.1729 295.293 41.9541 292.585 42.027C291.158 42.0583 289.669 42.1729 288.242 42.1729C287.919 42.1729 287.71 42.1 287.71 41.8186C287.783 41.3914 288.138 41.4643 289.273 40.8912C290.2 40.4639 290.273 39.4635 290.273 37.7962V21.5607C290.273 19.9559 290.273 18.2469 288.356 17.9655C288.075 17.8926 287.294 17.8196 287.294 17.3924C287.294 17.111 287.502 16.9651 288.544 16.9651C295.272 16.9651 297.116 17.111 298.616 17.111C299.324 17.111 302.605 16.9651 303.709 16.9651C303.99 16.9651 304.063 17.3195 304.063 17.7467C304.063 21.6962 303.563 21.9879 303.355 21.9879C302.501 21.9879 303.073 20.2789 302.501 19.4557C301.574 18.2469 297.876 18.4553 296.449 18.4553C293.033 18.4553 293.106 18.3094 293.106 20.6958V27.3129L293.085 27.3338Z" fill="#58595B"/>
<path d="M74.2428 20.0706V57.3247H58.3174V0.0523682H101.25C100.355 0.938131 100.688 2.28241 99.4694 4.02267C97.8967 6.12766 96.3447 5.14811 95.0636 6.69038C93.8867 8.12844 94.397 9.62902 93.2826 11.1088C91.6994 13.2242 89.283 12.4426 87.5436 14.6727C86.127 16.4546 86.2104 18.2678 84.8772 20.0498H74.2428V20.0706Z" fill="#FF8200"/>
<path d="M35.8609 0.0523682C34.9652 0.948551 35.2152 2.36577 34.0069 4.10603C32.4342 6.21102 30.8823 5.23147 29.6011 6.78416C28.4138 8.2118 28.9345 9.71239 27.8201 11.1921C26.2369 13.3075 23.8621 12.526 22.0811 14.756C20.6646 16.538 20.7479 18.2782 19.4147 20.0602H40.2042V38.682H22.9664C21.5395 38.682 20.3833 38.8383 19.4147 37.7963C18.6648 36.9939 18.5294 36.2227 18.5294 35.1181V0.0523682H0V40.464C0 45.1742 3.0726 49.7801 4.85367 51.5204C7.07219 53.7504 11.6342 57.3143 16.8108 57.3143H41.0791L55.6922 40.4744V0.0523682H35.8609Z" fill="#FF8200"/>
<path d="M108.479 48.592C108 49.0922 107.75 49.707 107.75 50.4469C107.75 51.0826 107.927 51.5932 108.27 51.9788C108.614 52.3643 109.27 52.7707 110.239 53.198L111.26 53.6565C111.718 53.8545 112.041 54.0733 112.228 54.3026C112.416 54.5318 112.509 54.8236 112.509 55.1779C112.509 55.626 112.332 56.022 111.978 56.3659C111.624 56.7098 111.218 56.8869 110.76 56.8869C110.176 56.8869 109.614 56.6264 109.072 56.1054C108.531 55.5843 108.145 54.9383 107.927 54.1671C107.895 54.0629 107.854 54.0108 107.791 54.0108C107.656 54.0108 107.583 54.115 107.583 54.3339C107.583 54.5006 107.666 54.8966 107.833 55.501C107.947 55.897 108.01 56.2096 108.031 56.418C108.052 56.6056 108.083 56.7306 108.114 56.7619C108.145 56.8036 108.27 56.8348 108.479 56.8765C108.624 56.9078 108.854 56.9703 109.176 57.0745C109.853 57.2829 110.343 57.3871 110.645 57.3871C111.405 57.3871 112.062 57.0954 112.634 56.5222C113.197 55.9387 113.478 55.2613 113.478 54.4797C113.478 53.7711 113.27 53.1667 112.864 52.6665C112.52 52.2497 111.812 51.8225 110.749 51.3848C109.853 51.0201 109.322 50.7595 109.156 50.6032C108.895 50.3531 108.76 50.0509 108.76 49.707C108.76 49.3319 108.916 49.0193 109.208 48.7379C109.51 48.467 109.864 48.3315 110.27 48.3315C110.864 48.3315 111.416 48.5608 111.937 49.0193C112.468 49.4778 112.791 50.0197 112.926 50.6449C112.957 50.8116 113.02 50.895 113.103 50.895C113.218 50.895 113.27 50.8012 113.27 50.6032C113.27 50.572 113.27 50.5199 113.259 50.4678L113.186 49.8529L113.103 49.1964C113.103 49.1235 113.093 49.0401 113.093 48.9568V48.4149C113.103 48.269 113.061 48.196 112.968 48.196C112.937 48.196 112.895 48.196 112.864 48.2273L112.603 48.3524C112.541 48.3836 112.468 48.4045 112.405 48.4045C112.322 48.4045 112.176 48.3628 111.978 48.2794L111.53 48.0918C111.124 47.9355 110.718 47.8522 110.291 47.8522C109.572 47.8522 108.979 48.1023 108.489 48.6024M118.592 48.2481C117.926 48.5191 117.374 48.8942 116.936 49.3736C116.561 49.78 116.259 50.2906 116.04 50.895C115.822 51.4994 115.707 52.1038 115.707 52.7186C115.707 54.1463 116.145 55.2821 117.009 56.1262C117.884 56.9807 119.04 57.408 120.498 57.408C121.956 57.408 123.217 56.9182 124.081 55.9386C124.967 54.9383 125.414 53.719 125.414 52.2705C125.414 50.9471 124.987 49.8738 124.123 49.061C123.258 48.2481 122.133 47.8417 120.727 47.8417C119.977 47.8417 119.259 47.9772 118.592 48.2481ZM122.436 49.2173C122.863 49.6133 123.206 50.1447 123.456 50.8116C123.706 51.4786 123.842 52.1663 123.842 52.875C123.842 54.0942 123.571 55.0737 123.019 55.8032C122.467 56.5326 121.727 56.8974 120.811 56.8974C119.79 56.8974 118.967 56.4597 118.332 55.5739C117.696 54.6882 117.374 53.5419 117.374 52.1351C117.374 50.9367 117.624 50.0092 118.134 49.3423C118.644 48.6754 119.342 48.3419 120.248 48.3419C121.092 48.3419 121.821 48.6337 122.446 49.2173M134.299 48.1127C134.299 48.2481 134.382 48.3107 134.559 48.3107C134.955 48.3107 135.278 48.4253 135.507 48.6546C135.736 48.8838 135.872 49.2069 135.903 49.6237L135.934 50.9992V51.5411C135.934 52.7812 135.861 53.7399 135.705 54.3964C135.559 55.0633 135.299 55.5635 134.945 55.9074C134.413 56.418 133.716 56.6785 132.841 56.6785C131.966 56.6785 131.299 56.4284 130.758 55.9282C130.393 55.6052 130.164 55.2092 130.049 54.7507C129.935 54.2922 129.872 53.521 129.872 52.4373V51.2493L129.966 49.5507C129.987 49.1131 130.049 48.8213 130.143 48.6754C130.237 48.5295 130.424 48.4253 130.695 48.3732C130.831 48.3524 130.914 48.3211 130.955 48.2898C130.987 48.2586 131.008 48.2065 131.008 48.1335C131.008 47.998 130.893 47.9355 130.664 47.9355C130.57 47.9355 130.414 47.9355 130.195 47.9668C129.664 48.0189 129.174 48.0397 128.737 48.0397C128.425 48.0397 127.987 48.0085 127.425 47.9564C127.289 47.9459 127.195 47.9355 127.154 47.9355C126.998 47.9355 126.925 47.998 126.925 48.1127C126.925 48.2169 127.018 48.2898 127.185 48.3211C127.456 48.3628 127.706 48.4357 127.925 48.5399C128.112 48.6337 128.237 48.7379 128.3 48.863C128.362 48.988 128.393 49.2069 128.393 49.5091L128.414 50.7283L128.341 53.3335C128.341 55.0216 128.768 56.1575 129.622 56.7515C130.258 57.1787 131.143 57.3976 132.289 57.3976C133.903 57.3976 135.059 56.8765 135.736 55.8344C136.017 55.4072 136.226 54.7924 136.351 54.0004C136.476 53.2084 136.538 52.1559 136.538 50.8638V50.0405V49.4569C136.538 48.7692 136.715 48.394 137.059 48.3315L137.319 48.2794C137.434 48.2586 137.486 48.2065 137.486 48.1127C137.486 47.998 137.424 47.9355 137.309 47.9355C137.247 47.9355 137.163 47.9355 137.09 47.9459C136.924 47.9668 136.726 47.9876 136.497 48.0085L135.84 48.0397L135.122 48.0085C134.841 47.998 134.663 47.9772 134.591 47.9668C134.518 47.9459 134.466 47.9459 134.434 47.9459C134.351 47.9459 134.309 48.0085 134.309 48.1127M144.777 48.863C144.944 48.7588 145.371 48.7067 146.048 48.7067C146.558 48.7067 146.943 48.8004 147.204 48.988C147.475 49.1756 147.652 49.4778 147.745 49.8946C147.787 50.0614 147.86 50.1551 147.964 50.1551C148.089 50.1551 148.141 50.0822 148.141 49.9363C148.141 49.7904 148.131 49.6028 148.1 49.3632C148.058 49.0714 148.037 48.8942 148.027 48.8213L147.995 48.3315C147.985 48.1231 147.85 48.0189 147.6 48.0189C147.537 48.0189 147.381 48.0189 147.152 48.0293C145.975 48.0814 144.86 48.1127 143.798 48.1127L142.163 48.0918H140.788C140.465 48.0814 140.215 48.071 140.038 48.0606C139.934 48.0606 139.85 48.0502 139.809 48.0502C139.642 48.0502 139.548 48.1335 139.528 48.3107L139.475 48.7171L139.392 49.3111L139.319 49.8946C139.278 50.1135 139.257 50.2906 139.257 50.4157C139.257 50.5511 139.319 50.6241 139.465 50.6241C139.569 50.6241 139.642 50.5303 139.694 50.3427L139.746 50.1551C139.882 49.6654 139.986 49.3527 140.069 49.2381C140.152 49.1131 140.309 48.9984 140.548 48.9047C140.871 48.7692 141.486 48.7067 142.381 48.7067C142.767 48.7067 142.954 48.8838 142.954 49.2381V55.5322C142.954 55.9282 142.871 56.2409 142.673 56.4805C142.486 56.7098 142.215 56.8348 141.861 56.8661C141.725 56.8661 141.642 56.8974 141.6 56.9286C141.559 56.9599 141.538 57.0224 141.527 57.1266C141.527 57.2412 141.59 57.3038 141.725 57.3038C141.788 57.3038 141.892 57.3038 142.048 57.2829L143.538 57.1996C143.746 57.1891 143.975 57.1787 144.235 57.1787C144.35 57.1787 144.433 57.1787 144.506 57.1787L145.35 57.2308L145.85 57.2517C145.933 57.2517 145.985 57.2517 146.016 57.2517C146.152 57.2517 146.225 57.1996 146.225 57.0954C146.225 56.9495 146.141 56.8661 145.985 56.8557C145.433 56.8244 145.037 56.6473 144.819 56.3242C144.6 56.0012 144.485 55.4697 144.485 54.709V49.6445C144.485 49.2277 144.569 48.9672 144.735 48.863M157.328 52.7812C157.39 52.875 157.411 53.1355 157.411 53.5731V55.4176C157.411 55.8865 157.338 56.2304 157.203 56.4597C157.067 56.6889 156.849 56.8244 156.547 56.8765C156.432 56.8869 156.38 56.9495 156.38 57.0432C156.38 57.1891 156.453 57.2725 156.599 57.2725C156.672 57.2725 156.838 57.2517 157.119 57.2204C157.578 57.1683 157.953 57.1475 158.234 57.1475C158.671 57.1475 159.161 57.1787 159.692 57.2412C159.921 57.2725 160.078 57.2829 160.161 57.2829C160.39 57.2829 160.515 57.21 160.515 57.0745C160.515 56.9599 160.432 56.8974 160.265 56.8974C159.807 56.8974 159.473 56.7515 159.265 56.4805C159.057 56.1992 158.963 55.7407 158.963 55.105V49.3319C158.963 48.7588 159.223 48.4149 159.755 48.3315C159.88 48.3107 159.953 48.2481 159.953 48.1439C159.953 48.0189 159.869 47.9564 159.713 47.9564C159.557 47.9564 159.307 47.9772 158.984 47.998C158.442 48.0606 158.088 48.0918 157.921 48.0918C157.432 48.0918 157.005 48.0606 156.64 48.0085C156.422 47.9772 156.276 47.9564 156.193 47.9564C156.047 47.9564 155.974 48.0189 155.974 48.1544C155.974 48.269 156.036 48.3315 156.161 48.3524L156.474 48.4149C157.109 48.5295 157.422 48.8734 157.422 49.4465V50.895C157.422 51.3952 157.39 51.6974 157.328 51.812C157.265 51.9267 157.099 51.9788 156.828 51.9788H153.682C153.318 51.9788 153.099 51.9371 153.037 51.8641C152.974 51.7808 152.943 51.5203 152.943 51.0617V49.3319C152.943 48.7588 153.203 48.4149 153.734 48.3315C153.859 48.3107 153.932 48.2481 153.932 48.1439C153.932 48.0189 153.849 47.9564 153.693 47.9564C153.537 47.9564 153.287 47.9772 152.964 47.998C152.422 48.0606 152.068 48.0918 151.901 48.0918C151.412 48.0918 150.985 48.0606 150.62 48.0085C150.401 47.9772 150.256 47.9564 150.172 47.9564C150.026 47.9564 149.954 48.0189 149.954 48.1544C149.954 48.2586 150.016 48.3211 150.141 48.3524C150.62 48.4461 150.953 48.5712 151.131 48.7275C151.308 48.8838 151.401 49.1235 151.401 49.4465V55.4176C151.401 55.8865 151.328 56.2304 151.193 56.4597C151.058 56.6889 150.839 56.8244 150.537 56.8765C150.422 56.8869 150.37 56.9495 150.37 57.0432C150.37 57.1891 150.443 57.2725 150.589 57.2725C150.662 57.2725 150.839 57.2517 151.11 57.2204C151.568 57.1683 151.943 57.1475 152.224 57.1475C152.672 57.1475 153.151 57.1787 153.682 57.2412C153.922 57.2725 154.078 57.2829 154.161 57.2829C154.391 57.2829 154.516 57.21 154.516 57.0745C154.516 56.9599 154.443 56.8974 154.286 56.8974C153.818 56.8974 153.474 56.7515 153.266 56.4805C153.057 56.1992 152.953 55.7407 152.953 55.105V53.4273C152.953 53.0729 152.995 52.8541 153.068 52.7707C153.141 52.6874 153.339 52.6457 153.662 52.6457H156.849C157.13 52.6457 157.297 52.6874 157.349 52.7812M165.223 49.3006C165.223 48.9151 165.337 48.6962 165.567 48.6233L166.025 48.5712H166.848C167.577 48.5712 168.098 48.6754 168.42 48.8734C168.743 49.0714 168.91 49.3944 168.91 49.8425C168.91 50.0405 168.952 50.1447 169.035 50.1447C169.212 50.1447 169.295 49.9571 169.295 49.6237C169.295 49.4569 169.274 49.1756 169.243 48.7796C169.212 48.5191 169.202 48.3315 169.202 48.2273C169.202 48.0814 169.139 48.0085 169.004 48.0085C168.972 48.0085 168.941 48.0085 168.91 48.0085C168.566 48.0502 167.66 48.071 166.202 48.071L163.65 48.0397L162.973 48.0085C162.838 48.0085 162.723 48.0085 162.64 48.0085C162.536 48.0085 162.473 47.998 162.442 47.998C162.296 47.998 162.223 48.0501 162.223 48.1544C162.223 48.269 162.286 48.3315 162.411 48.3524C162.931 48.4253 163.265 48.5503 163.431 48.7275C163.598 48.9046 163.681 49.2485 163.681 49.7487V55.0737C163.681 55.4801 163.66 55.8032 163.608 56.0429C163.556 56.3242 163.483 56.5222 163.39 56.6264C163.296 56.741 163.119 56.8453 162.869 56.939C162.765 56.9807 162.713 57.0432 162.723 57.1266C162.723 57.2308 162.796 57.2829 162.9 57.2829C162.983 57.2829 163.108 57.2829 163.296 57.2621C163.963 57.2204 164.462 57.1996 164.785 57.1996C165.275 57.1996 165.66 57.21 165.952 57.2412L166.733 57.3142C167.087 57.3454 167.4 57.3663 167.691 57.3663C168.181 57.3663 168.577 57.2933 168.868 57.137C169.16 56.9911 169.41 56.7306 169.608 56.3867C169.847 55.9699 169.962 55.5427 169.962 55.105C169.962 55.0425 169.941 55.0008 169.91 54.9591C169.868 54.9174 169.827 54.907 169.785 54.9174C169.764 54.9174 169.733 54.9487 169.702 55.0008C169.139 56.1054 167.952 56.6681 166.129 56.6681C165.91 56.6681 165.754 56.6264 165.65 56.5639C165.546 56.4909 165.462 56.3555 165.379 56.1575C165.275 55.8761 165.233 55.428 165.233 54.7924V54.188C165.233 53.7086 165.244 53.3543 165.275 53.125C165.296 52.9271 165.358 52.7916 165.431 52.7291C165.514 52.6665 165.66 52.6353 165.869 52.6353H166.327C166.785 52.6353 167.108 52.6561 167.275 52.6874C167.441 52.7186 167.587 52.7916 167.702 52.8958C167.91 53.0938 168.045 53.3856 168.108 53.7607C168.129 53.9379 168.202 54.0317 168.316 54.0212C168.368 54.0212 168.41 54.0004 168.42 53.9795C168.431 53.9587 168.441 53.917 168.441 53.8545V53.5106C168.441 53.2501 168.42 52.9479 168.389 52.604C168.348 52.0726 168.327 51.7391 168.327 51.5932C168.327 51.5098 168.327 51.416 168.337 51.291C168.347 51.1243 168.358 51.0305 168.358 50.9992C168.358 50.8742 168.306 50.8116 168.212 50.8221C168.118 50.8221 168.056 50.8637 168.014 50.9471L167.858 51.2806C167.618 51.7704 167.275 52.01 166.827 52.01H165.962L165.764 52.0204C165.535 52.0204 165.389 51.9683 165.327 51.8537C165.264 51.7391 165.233 51.4786 165.233 51.0617V49.3215L165.223 49.3006ZM174.711 53.2397C174.711 53.0625 174.743 52.9583 174.816 52.9166L175.118 52.8645H175.534C175.888 52.8645 176.149 52.9271 176.305 53.0625C176.461 53.198 176.659 53.5106 176.899 54.0108C177.524 55.2717 178.024 56.1262 178.419 56.5847C178.805 57.0328 179.232 57.2621 179.701 57.2621C179.982 57.2621 180.305 57.1787 180.68 57.012C181.044 56.8453 181.232 56.6994 181.232 56.5639C181.232 56.4597 181.19 56.4076 181.107 56.4076C181.065 56.4076 181.013 56.4076 180.961 56.4284C180.867 56.4493 180.773 56.4493 180.669 56.4493C180.419 56.4493 180.2 56.3659 180.013 56.2096C179.826 56.0533 179.617 55.7615 179.378 55.3447L178.68 54.115L178.086 53.0521C178.003 52.9062 177.94 52.802 177.899 52.7395C177.857 52.677 177.836 52.6249 177.836 52.5728C177.836 52.5206 177.878 52.479 177.961 52.4373C178.399 52.2497 178.742 51.9683 178.982 51.6036C179.232 51.2389 179.357 50.8325 179.357 50.3948C179.357 49.6862 179.076 49.1026 178.513 48.6441C177.951 48.1752 177.242 47.9459 176.388 47.9459C176.097 47.9459 175.576 47.9772 174.826 48.0293C174.18 48.0814 173.628 48.1023 173.18 48.1023C172.764 48.1023 172.389 48.0814 172.045 48.0502C171.93 48.0397 171.847 48.0293 171.805 48.0293C171.68 48.0293 171.618 48.0918 171.618 48.2169C171.618 48.3419 171.712 48.4253 171.899 48.4461C172.399 48.5087 172.753 48.6858 172.972 48.988C173.107 49.1756 173.17 49.5299 173.17 50.0718V55.1988V55.8344C173.17 56.1575 173.107 56.4076 172.993 56.5639C172.878 56.7202 172.67 56.8453 172.358 56.939C172.264 56.9703 172.222 57.0328 172.222 57.1266C172.222 57.2517 172.305 57.3142 172.462 57.3142C172.514 57.3142 172.597 57.3142 172.722 57.2933L173.17 57.2517L173.732 57.1996C173.962 57.1787 174.232 57.1683 174.534 57.1683C174.889 57.1683 175.263 57.1891 175.649 57.2204C175.784 57.2308 175.878 57.2412 175.93 57.2412C176.086 57.2412 176.159 57.1787 176.159 57.0537C176.159 56.9286 176.065 56.8557 175.878 56.8348C175.42 56.7931 175.107 56.616 174.951 56.3138C174.795 56.0116 174.711 55.4385 174.711 54.584V53.2188V53.2397ZM174.889 48.6441C175.003 48.5191 175.211 48.4566 175.513 48.4566C176.201 48.4566 176.763 48.6754 177.201 49.1235C177.649 49.5612 177.867 50.1239 177.867 50.8012C177.867 51.3223 177.701 51.7287 177.378 52.0309C177.211 52.1872 177.034 52.2705 176.836 52.3018C176.649 52.3331 176.149 52.3435 175.347 52.3435C175.066 52.3435 174.888 52.3018 174.816 52.2289C174.743 52.1559 174.701 51.9683 174.701 51.687V49.3632C174.701 49.0193 174.753 48.79 174.878 48.665M186.075 49.1756L185.606 48.6337C185.346 48.3211 185.179 48.1335 185.096 48.0814C185.012 48.0189 184.908 47.9876 184.762 47.9876C184.658 47.9876 184.544 47.9876 184.388 48.0085C183.992 48.0502 183.617 48.071 183.263 48.071H182.981L182.513 48.0606C182.356 48.0606 182.284 48.1231 182.284 48.2481C182.284 48.3524 182.356 48.4149 182.492 48.4149C183.513 48.4878 184.023 49.2173 184.023 50.5928V53.5106L183.981 55.105C183.981 55.6573 183.908 56.0741 183.752 56.3659C183.606 56.6577 183.367 56.8557 183.034 56.9495C182.909 56.9911 182.836 57.0537 182.836 57.137C182.836 57.2412 182.898 57.3038 183.023 57.3038C183.096 57.3038 183.211 57.2933 183.367 57.2621C183.721 57.1996 184.127 57.1683 184.585 57.1683C185.044 57.1683 185.46 57.1996 185.835 57.2621C185.96 57.2829 186.044 57.2933 186.096 57.2933C186.231 57.2933 186.304 57.2204 186.304 57.0849C186.304 56.9807 186.242 56.9286 186.106 56.9182C185.377 56.8557 184.94 56.5639 184.794 56.0637C184.658 55.5948 184.585 54.6569 184.585 53.2709V50.4678C184.585 50.2698 184.648 50.1656 184.752 50.1656C184.794 50.1656 184.867 50.2281 184.971 50.3427L191.095 57.1475C191.179 57.2412 191.262 57.2933 191.345 57.2933C191.439 57.2933 191.481 57.2412 191.481 57.1058L191.449 56.2617V55.7511V55.0008L191.481 54.4276L191.574 50.2281V49.8946C191.574 48.9776 191.866 48.4566 192.439 48.3524C192.585 48.3315 192.658 48.2586 192.658 48.1439C192.658 48.0189 192.585 47.9564 192.439 47.9564C192.397 47.9564 192.335 47.9564 192.241 47.9668C191.564 48.0501 191.074 48.0918 190.762 48.0918C190.606 48.0918 190.418 48.0814 190.179 48.0502C189.814 48.0085 189.554 47.9772 189.397 47.9772C189.272 47.9772 189.2 48.0397 189.2 48.1544C189.2 48.2481 189.272 48.3002 189.418 48.3107C190.043 48.3524 190.46 48.5608 190.668 48.9359C190.887 49.3111 190.991 50.0197 190.991 51.0722C190.991 51.9683 190.97 52.9166 190.929 53.9066C190.929 54.1775 190.866 54.313 190.772 54.313C190.668 54.313 190.47 54.1463 190.158 53.8024L189.929 53.5419L186.366 49.5403C186.366 49.5403 186.221 49.3632 186.033 49.1443" fill="#58595B"/>
</g>
<defs>
<clipPath id="clip0_3408_5207">
<rect width="306" height="57.3974" fill="white"/>
</clipPath>
</defs>
</svg>