<?xml version="1.0" encoding="UTF-8"?>
<!DOCTYPE svg PUBLIC "-//W3C//DTD SVG 1.1//EN" "http://www.w3.org/Graphics/SVG/1.1/DTD/svg11.dtd">
<!-- Creator: CorelDRAW 2021 (64-Bit) -->
<svg xmlns="http://www.w3.org/2000/svg" xml:space="preserve" width="6.48631in" height="6.22965in" version="1.1" style="shape-rendering:geometricPrecision; text-rendering:geometricPrecision; image-rendering:optimizeQuality; fill-rule:evenodd; clip-rule:evenodd"
viewBox="0 0 6486.31 6229.65"
 xmlns:xlink="http://www.w3.org/1999/xlink"
 xmlns:xodm="http://www.corel.com/coreldraw/odm/2003">
 <defs>
  <style type="text/css">
   <![CDATA[
    .fil5 {fill:none;fill-rule:nonzero}
    .fil6 {fill:#FEFEFE;fill-rule:nonzero}
    .fil3 {fill:url(#id0);fill-rule:nonzero}
    .fil2 {fill:url(#id1);fill-rule:nonzero}
    .fil0 {fill:url(#id2);fill-rule:nonzero}
    .fil1 {fill:url(#id3);fill-rule:nonzero}
    .fil4 {fill:url(#id4);fill-rule:nonzero}
   ]]>
  </style>
  <linearGradient id="id0" gradientUnits="userSpaceOnUse" x1="2080.51" y1="2773.15" x2="5251.4" y2="3052.75">
   <stop offset="0" style="stop-opacity:1; stop-color:#431D99"/>
   <stop offset="0.25098" style="stop-opacity:1; stop-color:#401C93"/>
   <stop offset="0.560784" style="stop-opacity:1; stop-color:#391984"/>
   <stop offset="0.901961" style="stop-opacity:1; stop-color:#2E166B"/>
   <stop offset="1" style="stop-opacity:1; stop-color:#2B1563"/>
  </linearGradient>
  <linearGradient id="id1" gradientUnits="userSpaceOnUse" x1="1665.47" y1="2814.41" x2="4371.52" y2="2242.1">
   <stop offset="0" style="stop-opacity:1; stop-color:#F01AA8"/>
   <stop offset="0.141176" style="stop-opacity:1; stop-color:#E31AB3"/>
   <stop offset="0.368627" style="stop-opacity:1; stop-color:#D31AC1"/>
   <stop offset="0.54902" style="stop-opacity:1; stop-color:#CE1AC7"/>
   <stop offset="1" style="stop-opacity:1; stop-color:#D215C0"/>
  </linearGradient>
  <linearGradient id="id2" gradientUnits="userSpaceOnUse" x1="2196.72" y1="655.76" x2="2595.15" y2="1660.16">
   <stop offset="0" style="stop-opacity:1; stop-color:#FF7218"/>
   <stop offset="0.4" style="stop-opacity:1; stop-color:#FF8E0C"/>
   <stop offset="0.74902" style="stop-opacity:1; stop-color:#FF9F05"/>
   <stop offset="1" style="stop-opacity:1; stop-color:#FFA603"/>
  </linearGradient>
  <linearGradient id="id3" gradientUnits="userSpaceOnUse" x1="3441.83" y1="1037.6" x2="4429.62" y2="2224.61">
   <stop offset="0" style="stop-opacity:1; stop-color:#2762C6"/>
   <stop offset="0.129412" style="stop-opacity:1; stop-color:#2876D1"/>
   <stop offset="0.360784" style="stop-opacity:1; stop-color:#2A94E2"/>
   <stop offset="0.580392" style="stop-opacity:1; stop-color:#2CA9EF"/>
   <stop offset="0.8" style="stop-opacity:1; stop-color:#2DB6F6"/>
   <stop offset="1" style="stop-opacity:1; stop-color:#2EBBF9"/>
  </linearGradient>
  <linearGradient id="id4" gradientUnits="userSpaceOnUse" x1="4047.78" y1="2979.98" x2="5002.37" y2="3320.31">
   <stop offset="0" style="stop-opacity:1; stop-color:#008CCE"/>
   <stop offset="1" style="stop-opacity:1; stop-color:#126CB4"/>
  </linearGradient>
 </defs>
 <g id="Layer_x0020_1">
  <metadata id="CorelCorpID_0Corel-Layer"/>
  <g id="_1481437414736">
   <g>
    <path class="fil0" d="M3588 578.32l-378.1 640.99 -427.07 723.91c-684.4,217.89 -1127.74,723 -1177.55,800.94l1638.24 -2744.16 344.48 578.31 -0 0z"/>
    <path class="fil1" d="M4845.66 2689.37c-23.16,-27.23 -47.23,-52.79 -72.05,-76.78 0,0 0,-0.08 -0.08,-0.17 -5.39,-11.04 -335.85,-677.68 -1185.52,-760.6l-378.1 -632.52 378.1 -640.99 1257.65 2111.06 0 0z"/>
    <path class="fil2" d="M4773.52 2612.43c-466.17,-452.64 -1189.5,-367.31 -1189.5,-367.31 -1167,107.41 -1508.25,1141.6 -1508.25,1141.6l-854.07 0 382 -639.99c0.5,-0.83 1,-1.66 1.58,-2.57 49.8,-77.94 493.15,-583.05 1177.55,-800.94 179.8,-57.28 376.19,-94.71 586.44,-99.36 76.45,-1.66 149.33,1.16 218.72,7.97 849.67,82.93 1180.12,749.56 1185.52,760.6l0.01 0z"/>
    <path class="fil3" d="M5261.11 3386.72l-80.52 0c-488.83,-494.47 -1180.45,-697.26 -1180.45,-697.26 -917.65,-228.85 -1434.79,211.92 -1570.42,330.62 -135.63,118.7 -353.94,366.64 -353.94,366.64 0,0 341.24,-1034.19 1508.25,-1141.6 0,0 723.33,-85.33 1189.5,367.31 0.08,0.08 0.08,0.17 0.08,0.17 24.82,23.99 48.89,49.56 72.05,76.78l0.08 -0.01c0,0 415.37,697.35 415.37,697.35z"/>
    <path class="fil4" d="M5180.59 3386.72l-764.34 0 -416.12 -697.26c0,0 691.62,202.79 1180.45,697.26l0 0z"/>
    <path class="fil5" d="M3588 1851.82c-69.39,-6.81 -142.28,-9.63 -218.72,-7.97 -210.26,4.65 -406.65,42.09 -586.44,99.36l427.07 -723.91 378.1 632.52 -0 -0z"/>
   </g>
   <g>
    <path class="fil6" d="M32.62 5428.13l698.59 -1570.09 359.43 0 705.32 1570.09 -381.84 -0 -577.32 -1386.15 146.01 0 -577.32 1386.15 -372.87 0zm352.7 -336.43l92.14 -275.92 813.15 0 94.38 275.92 -999.58 0 -0.08 0z"/>
    <path class="fil6" d="M1959.98 5428.13l0 -1570.09 680.67 0c140.78,0 262.06,22.83 363.91,68.4 101.85,45.65 180.46,111.06 235.83,196.23 55.37,85.25 83.09,186.19 83.09,302.81 0,116.63 -27.72,219.47 -83.09,303.89 -55.45,84.5 -134.06,149.91 -235.83,196.23 -101.85,46.32 -223.13,69.56 -363.91,69.56l-480.7 0 166.26 -163.78 0 596.66 -366.15 0 -0.08 0.08zm366.15 -556.23l-166.26 -172.74 460.52 0c110.81,0 194.65,-23.91 251.6,-71.8 56.86,-47.81 85.33,-115.13 85.33,-201.87 0,-86.74 -28.47,-153.65 -85.33,-200.71 -56.94,-47.07 -140.78,-70.64 -251.6,-70.64l-460.52 -0 166.26 -172.74 0 890.51 0 0z"/>
    <path class="fil6" d="M3581.86 5428.13l0 -1570.09 1188.34 0 0 291.61 -826.68 0 0 986.96 855.89 -0 0 291.61 -1217.48 0 -0.08 -0.09zm334.69 -654.93l0 -284.88 757.03 0 0 284.88 -757.03 0z"/>
    <polygon class="fil6" points="4898.2,5428.13 5572.14,4497.28 5572.14,4761.99 4927.42,3858.03 5338.48,3858.04 5785.47,4486.07 5610.24,4490.56 6055,3858.04 6448.12,3858.04 5805.64,4746.3 5805.64,4486.16 6486.31,5428.21 6066.2,5428.21 5603.44,4762.07 5769.7,4762.07 5313.66,5428.21 4898.12,5428.21 "/>
   </g>
   <g>
    <path class="fil6" d="M511.66 6219.85l0 -393.54 162.36 0c52.79,0 94.21,12.45 124.18,37.35 29.96,24.9 44.99,59.1 44.99,102.6 0,28.89 -6.81,53.62 -20.34,74.21 -13.53,20.59 -32.95,36.52 -58.02,47.81 -25.07,11.2 -55.2,16.85 -90.23,16.85l-121.69 0 32.29 -32.62 0 147.26 -73.55 0 0 0.08zm73.54 -139.45l-32.29 -35.44 118.29 0c32.46,0 56.86,-6.97 73.3,-20.83 16.44,-13.86 24.65,-33.2 24.65,-57.94 0,-24.74 -8.22,-43.91 -24.65,-57.61 -16.44,-13.7 -40.84,-20.5 -73.3,-20.5l-118.28 0 32.29 -35.94 0 228.27 -0 -0zm185.61 139.45l-100.19 -142.77 78.69 0 100.69 142.77 -79.19 0z"/>
    <path class="fil6" d="M869.26 6219.85l178.22 -393.54 72.46 0 178.8 393.54 -77.53 0 -152.82 -354.69 29.39 0 -153.31 354.69 -75.29 -0 0.08 0zm82.09 -91.06l20.34 -57.36 213.33 0 19.84 57.36 -253.5 0z"/>
    <path class="fil6" d="M1349.12 6219.85l0 -393.54 162.94 0c35.11,0 65.16,5.56 90.23,16.6 25.07,11.04 44.41,27.06 58.02,48.06 13.61,21 20.34,46.07 20.34,75.29 0,29.22 -6.81,53.7 -20.34,74.46 -13.53,20.75 -32.95,36.94 -58.02,48.31 -25.07,11.46 -55.2,17.18 -90.23,17.18l-121.69 0 32.29 -33.7 0 147.26 -73.55 0 0 0.08zm73.55 -139.45l-32.29 -36.02 118.29 0c32.46,0 56.86,-6.81 73.3,-20.5 16.43,-13.7 24.65,-32.87 24.65,-57.61 0,-24.74 -8.22,-43.91 -24.65,-57.61 -16.44,-13.7 -40.84,-20.5 -73.3,-20.5l-118.29 0 32.29 -35.94 0 228.27 0 -0.09z"/>
    <path class="fil6" d="M1754.28 6219.85l0 -393.54 73.55 0 0 393.54 -73.55 0zm67.9 -168.67l0 -62.42 216.15 0 0 62.42 -216.15 0zm210.43 168.67l0 -393.54 72.96 0 0 393.54 -72.96 0z"/>
    <polygon class="fil6" points="2212.57,6219.85 2212.57,5826.31 2286.11,5826.31 2286.11,6219.85 "/>
    <path class="fil6" d="M2576.39 6225.5c-30.55,0 -58.69,-4.98 -84.33,-14.86 -25.65,-9.96 -47.98,-24.07 -67.07,-42.42 -19.09,-18.35 -33.87,-39.76 -44.41,-64.08 -10.54,-24.32 -15.85,-51.38 -15.85,-80.93 0,-29.55 5.31,-56.61 15.85,-80.93 10.54,-24.32 25.48,-45.74 44.74,-64.08 19.26,-18.35 41.67,-32.54 67.32,-42.42 25.65,-9.96 53.79,-14.86 84.33,-14.86 32.46,0 62.09,5.56 88.82,16.6 26.81,11.04 49.39,27.48 67.9,49.22l-47.56 44.41c-14.69,-15.36 -30.96,-26.89 -48.64,-34.53 -17.76,-7.64 -36.77,-11.54 -57.11,-11.54 -20.34,0 -39.68,3.4 -56.86,10.13 -17.18,6.72 -32.04,16.27 -44.74,28.64 -12.62,12.37 -22.58,26.98 -29.72,43.83 -7.14,16.85 -10.71,35.44 -10.71,55.61 0,20.17 3.57,38.76 10.71,55.7 7.14,16.85 17.1,31.46 29.72,43.83 12.62,12.37 27.56,21.91 44.74,28.64 17.18,6.72 36.11,10.13 56.86,10.13 20.75,0 39.43,-3.82 57.11,-11.54 17.76,-7.64 33.95,-19.43 48.64,-35.11l47.56 44.41c-18.51,21.75 -41.09,38.19 -67.9,49.47 -26.81,11.2 -56.61,16.85 -89.4,16.85l0 -0.15z"/>
    <path class="fil6" d="M381 6204.5c-28.89,10.04 -84.42,25.15 -146.59,25.15 -76.7,0 -134.31,-18.93 -175.98,-58.27 -37.11,-34.78 -58.44,-85.91 -58.44,-143.02 0,-119.61 93.63,-208.93 244.63,-208.93 56.53,0 100.77,11.54 121.61,21.25l-17.68 60.51c-25.48,-10.96 -56.44,-19.67 -106.42,-19.67 -96.79,0 -161.45,54.87 -161.45,141.53 0,86.66 61.09,145.1 158.13,145.1 31.87,0 55.53,-4.07 66.91,-9.55l0 -96.29 -80.02 0 0 -59.43 155.31 0 0 201.71 0 -0.08z"/>
    <g>
     <path class="fil6" d="M3227.59 6220.27c-31.3,0 -61.18,-4.23 -89.57,-12.7 -28.47,-8.47 -51.22,-19.34 -68.4,-32.7l25.73 -54.62c16.02,11.87 35.86,21.83 59.52,29.72 23.66,7.97 47.89,11.87 72.72,11.87 21,0 38.02,-2.16 50.97,-6.48 12.95,-4.32 22.5,-10.21 28.63,-17.6 6.14,-7.39 9.13,-15.77 9.13,-25.15 0,-11.54 -4.4,-20.83 -13.2,-27.89 -8.8,-7.06 -20.08,-12.62 -34.03,-16.77 -13.94,-4.15 -29.39,-7.89 -46.4,-11.37 -17.02,-3.4 -33.95,-7.64 -50.97,-12.7 -17.02,-5.06 -32.54,-11.46 -46.65,-19.17 -14.11,-7.72 -25.48,-18.09 -34.03,-31.13 -8.55,-12.95 -12.87,-29.55 -12.87,-49.72 0,-20.17 5.81,-39.35 17.43,-56.53 11.62,-17.1 29.39,-30.8 53.21,-41.09 23.82,-10.29 54.12,-15.44 90.73,-15.44 24.07,0 47.89,2.91 71.55,8.63 23.66,5.81 44.24,14.03 61.84,24.9l-23.49 54.62c-17.93,-10.13 -36.44,-17.6 -55.53,-22.41 -19.09,-4.9 -37.44,-7.3 -54.95,-7.3 -20.25,0 -36.85,2.32 -49.8,7.06 -12.95,4.65 -22.41,10.87 -28.31,18.68 -5.89,7.72 -8.88,16.35 -8.88,25.65 0,11.54 4.31,20.83 12.87,27.89 8.55,7.06 19.84,12.54 33.78,16.52 13.94,3.98 29.47,7.72 46.65,11.37 17.18,3.57 34.2,7.8 50.97,12.7 16.76,4.9 32.2,11.2 46.4,18.93 14.11,7.72 25.48,18.01 34.03,30.8 8.55,12.78 12.87,29.13 12.87,48.98 0,19.84 -5.81,38.85 -17.43,55.95 -11.62,17.1 -29.47,30.8 -53.54,41.09 -24.07,10.3 -54.37,15.44 -91.06,15.44l0.08 -0.01z"/>
     <path class="fil6" d="M3651.26 6220.27c-30.88,0 -59.6,-4.9 -86.16,-14.61 -26.56,-9.71 -49.56,-23.41 -68.98,-41.09 -19.51,-17.68 -34.53,-38.27 -45.24,-61.93 -10.71,-23.57 -16.02,-49.31 -16.02,-77.03 0,-27.72 5.31,-53.96 16.02,-77.61 10.71,-23.57 25.73,-44.16 45.24,-61.67 19.43,-17.52 42.33,-31.13 68.73,-40.84 26.4,-9.71 55.12,-14.61 86.41,-14.61 31.29,0 59.52,4.81 85.91,14.36 26.31,9.55 49.14,23.07 68.4,40.59 19.26,17.52 34.28,38.1 44.91,61.93 10.71,23.82 16.02,49.72 16.02,77.86 0,28.14 -5.31,53.96 -16.02,77.61 -10.71,23.66 -25.65,44.24 -44.91,61.93 -19.26,17.68 -42.09,31.3 -68.4,40.84 -26.31,9.55 -54.95,14.36 -85.91,14.36l0 -0.09zm0 -61.68c20.25,0 38.85,-3.24 55.78,-9.71 17.02,-6.48 31.79,-15.69 44.41,-27.56 12.62,-11.87 22.41,-25.98 29.47,-42.17 7.06,-16.19 10.63,-34.03 10.63,-53.54 0,-19.51 -3.4,-37.35 -10.29,-53.54 -6.89,-16.27 -16.69,-30.3 -29.47,-42.17 -12.78,-11.87 -27.64,-21.08 -44.66,-27.56 -17.02,-6.48 -35.61,-9.71 -55.78,-9.71 -20.17,0 -39.01,3.24 -56.36,9.71 -17.35,6.48 -32.37,15.77 -44.91,27.89 -12.62,12.12 -22.5,26.15 -29.8,42.17 -7.22,16.02 -10.87,33.78 -10.87,53.29 0,19.51 3.65,36.77 10.87,52.96 7.22,16.19 17.18,30.38 29.8,42.42 12.62,12.12 27.56,21.33 44.91,27.89 17.35,6.48 36.19,9.71 56.36,9.71l-0.09 -0.08z"/>
     <polygon class="fil6" points="3945.52,6214.87 3945.52,5836.36 4019.98,5836.36 4019.98,6155.44 4229.49,6155.44 4229.49,6214.96 3945.52,6214.96 "/>
     <path class="fil6" d="M4454.44 6220.27c-54.62,0 -97.45,-14.61 -128.5,-43.83 -31.13,-29.22 -46.65,-71.55 -46.65,-127.09l0 -213.08 74.46 0 0 210.92c0,38.93 8.88,67.24 26.65,84.92 17.76,17.68 42.83,26.48 75.29,26.48 32.46,0 57.44,-8.8 75.04,-26.48 17.52,-17.68 26.31,-45.99 26.31,-84.92l0 -210.92 73.3 0 0 213.08c0,55.53 -15.52,97.87 -46.65,127.09 -31.13,29.22 -74.13,43.83 -129.08,43.83l-0.17 0z"/>
     <polygon class="fil6" points="4808.3,6214.87 4808.3,5895.79 4675.49,5895.8 4675.49,5836.28 5015.57,5836.28 5015.57,5895.79 4882.76,5895.8 4882.76,6214.88 "/>
     <polygon class="fil6" points="5071.69,6214.87 5071.69,5836.36 5146.15,5836.36 5146.15,6214.87 "/>
     <path class="fil6" d="M5442.07 6220.27c-30.88,0 -59.6,-4.9 -86.16,-14.61 -26.56,-9.71 -49.56,-23.41 -68.98,-41.09 -19.51,-17.68 -34.53,-38.27 -45.24,-61.93 -10.71,-23.57 -16.02,-49.31 -16.02,-77.03 0,-27.72 5.31,-53.96 16.02,-77.61 10.71,-23.57 25.73,-44.16 45.24,-61.67 19.43,-17.52 42.33,-31.13 68.73,-40.84 26.31,-9.71 55.12,-14.61 86.41,-14.61 31.29,0 59.52,4.81 85.91,14.36 26.31,9.55 49.14,23.07 68.4,40.59 19.26,17.52 34.28,38.1 44.91,61.93 10.71,23.82 16.02,49.72 16.02,77.86 0,28.14 -5.31,53.96 -16.02,77.61 -10.71,23.66 -25.65,44.24 -44.91,61.93 -19.26,17.68 -42.09,31.3 -68.4,40.84 -26.31,9.55 -54.95,14.36 -85.91,14.36l0 -0.09zm0 -61.68c20.25,0 38.85,-3.24 55.78,-9.71 17.02,-6.48 31.79,-15.69 44.41,-27.56 12.62,-11.87 22.41,-25.98 29.47,-42.17 7.06,-16.19 10.63,-34.03 10.63,-53.54 0,-19.51 -3.4,-37.35 -10.29,-53.54 -6.89,-16.27 -16.69,-30.3 -29.47,-42.17 -12.78,-11.87 -27.64,-21.08 -44.66,-27.56 -17.02,-6.48 -35.61,-9.71 -55.78,-9.71 -20.17,0 -39.01,3.24 -56.36,9.71 -17.35,6.48 -32.37,15.77 -44.91,27.89 -12.62,12.12 -22.5,26.15 -29.8,42.17 -7.22,16.02 -10.87,33.78 -10.87,53.29 0,19.51 3.65,36.77 10.87,52.96 7.22,16.19 17.18,30.38 29.8,42.42 12.62,12.12 27.56,21.33 44.91,27.89 17.35,6.48 36.19,9.71 56.36,9.71l-0.09 -0.08z"/>
     <polygon class="fil6" points="5736.33,6214.87 5736.33,5836.36 5797.59,5836.36 6048.94,6128.38 6018.56,6128.38 6018.56,5836.36 6091.85,5836.36 6091.85,6214.87 6030.59,6214.87 5779.83,5922.85 5810.21,5922.85 5810.21,6214.87 "/>
     <path class="fil6" d="M6324.28 6220.27c-31.3,0 -61.18,-4.23 -89.57,-12.7 -28.47,-8.47 -51.22,-19.34 -68.4,-32.7l25.73 -54.62c16.02,11.87 35.86,21.83 59.52,29.72 23.66,7.97 47.89,11.87 72.72,11.87 21,0 37.93,-2.16 50.97,-6.48 12.95,-4.31 22.5,-10.21 28.64,-17.6 6.06,-7.39 9.13,-15.77 9.13,-25.15 0,-11.54 -4.4,-20.83 -13.2,-27.89 -8.8,-7.06 -20.17,-12.62 -34.03,-16.77 -13.94,-4.15 -29.39,-7.89 -46.4,-11.37 -17.02,-3.4 -33.95,-7.64 -50.97,-12.7 -17.02,-5.06 -32.54,-11.46 -46.65,-19.17 -14.11,-7.72 -25.48,-18.09 -34.03,-31.13 -8.55,-12.95 -12.87,-29.55 -12.87,-49.72 0,-20.17 5.81,-39.35 17.43,-56.53 11.62,-17.1 29.39,-30.8 53.21,-41.09 23.82,-10.29 54.12,-15.44 90.73,-15.44 24.07,0 47.89,2.91 71.55,8.63 23.66,5.81 44.24,14.03 61.84,24.9l-23.49 54.62c-17.93,-10.13 -36.44,-17.6 -55.53,-22.41 -19.09,-4.9 -37.44,-7.3 -54.95,-7.3 -20.25,0 -36.85,2.32 -49.8,7.06 -12.95,4.65 -22.41,10.87 -28.31,18.68 -5.89,7.72 -8.88,16.35 -8.88,25.65 0,11.54 4.31,20.83 12.87,27.89 8.55,7.06 19.84,12.54 33.78,16.52 13.94,3.98 29.47,7.72 46.65,11.37 17.18,3.57 34.2,7.8 50.97,12.7 16.77,4.9 32.29,11.2 46.4,18.93 14.11,7.72 25.48,18.01 34.03,30.8 8.55,12.78 12.87,29.13 12.87,48.98 0,19.84 -5.81,38.85 -17.43,55.95 -11.62,17.1 -29.47,30.8 -53.54,41.09 -24.07,10.29 -54.37,15.44 -91.06,15.44l0.08 -0.01z"/>
    </g>
   </g>
  </g>
 </g>
</svg>
