<?xml version="1.0" encoding="UTF-8"?>
<svg id="Layer_2" xmlns="http://www.w3.org/2000/svg" xmlns:xlink="http://www.w3.org/1999/xlink" version="1.1" viewBox="0 0 1024 1024">
  <!-- Generator: Adobe Illustrator 30.1.0, SVG Export Plug-In . SVG Version: 2.1.1 Build 136)  -->
  <defs>
    <style>
      .st0 {
        fill: none;
      }

      .st1 {
        fill: url(#linear-gradient2);
      }

      .st2 {
        fill: url(#linear-gradient1);
      }

      .st3 {
        fill: url(#linear-gradient3);
      }

      .st4 {
        fill: url(#linear-gradient4);
      }

      .st5 {
        fill: url(#linear-gradient);
      }

      .st6 {
        fill: #fff;
        stroke: #000;
        stroke-miterlimit: 10;
      }
    </style>
    <linearGradient id="linear-gradient" x1="371" y1="840.6" x2="419.3" y2="719.6" gradientTransform="translate(0 1024) scale(1 -1)" gradientUnits="userSpaceOnUse">
      <stop offset="0" stop-color="#ff7219"/>
      <stop offset="0" stop-color="#ff7218"/>
      <stop offset=".4" stop-color="#ff8e0c"/>
      <stop offset=".8" stop-color="#ff9f05"/>
      <stop offset="1" stop-color="#ffa603"/>
    </linearGradient>
    <linearGradient id="linear-gradient1" x1="521" y1="794.7" x2="640.2" y2="651.8" gradientTransform="translate(0 1024) scale(1 -1)" gradientUnits="userSpaceOnUse">
      <stop offset="0" stop-color="#2762c6"/>
      <stop offset=".1" stop-color="#2876d1"/>
      <stop offset=".4" stop-color="#2a94e2"/>
      <stop offset=".6" stop-color="#2ca9ef"/>
      <stop offset=".8" stop-color="#2db6f6"/>
      <stop offset="1" stop-color="#2ebbf9"/>
    </linearGradient>
    <linearGradient id="linear-gradient2" x1="307.2" y1="580.1" x2="634" y2="649.5" gradientTransform="translate(0 1024) scale(1 -1)" gradientUnits="userSpaceOnUse">
      <stop offset="0" stop-color="#f01aa8"/>
      <stop offset=".1" stop-color="#e31ab3"/>
      <stop offset=".4" stop-color="#d31ac1"/>
      <stop offset=".6" stop-color="#ce1ac7"/>
      <stop offset="1" stop-color="#d215c0"/>
    </linearGradient>
    <linearGradient id="linear-gradient3" x1="357.4" y1="591" x2="739.4" y2="554.8" gradientTransform="translate(0 1024) scale(1 -1)" gradientUnits="userSpaceOnUse">
      <stop offset="0" stop-color="#431d99"/>
      <stop offset=".2" stop-color="#401c93"/>
      <stop offset=".6" stop-color="#391984"/>
      <stop offset=".9" stop-color="#2e166b"/>
      <stop offset="1" stop-color="#2b1563"/>
    </linearGradient>
    <linearGradient id="linear-gradient4" x1="594.3" y1="561" x2="709.9" y2="519.4" gradientTransform="translate(0 1024) scale(1 -1)" gradientUnits="userSpaceOnUse">
      <stop offset="0" stop-color="#008cce"/>
      <stop offset="1" stop-color="#126cb4"/>
    </linearGradient>
  </defs>
  <g>
    <path class="st5" d="M538.6,173.7l-45.5,77.2-51.5,87.2c-82.5,26.2-135.9,87.1-141.9,96.5L497.1,104l41.5,69.7Z"/>
    <path class="st2" d="M690.1,428c-2.8-3.3-5.7-6.4-8.7-9.2,0,0,0,0,0,0-.7-1.3-40.5-81.6-142.8-91.6l-45.5-76.2,45.5-77.2,151.5,254.3Z"/>
    <path class="st1" d="M681.4,418.7c-56.2-54.5-143.3-44.2-143.3-44.2-140.6,12.9-181.7,137.5-181.7,137.5h-102.9l46-77.1c0-.1.1-.2.2-.3,6-9.4,59.4-70.2,141.9-96.5,21.7-6.9,45.3-11.4,70.7-12,9.2-.2,18,.1,26.3,1,102.4,10,142.2,90.3,142.8,91.6Z"/>
    <path class="st3" d="M740.2,512h-9.7c-58.9-59.6-142.2-84-142.2-84-110.5-27.6-172.9,25.5-189.2,39.8-16.3,14.3-42.6,44.2-42.6,44.2,0,0,41.1-124.6,181.7-137.5,0,0,87.1-10.3,143.3,44.2,0,0,0,0,0,0,3,2.9,5.9,6,8.7,9.2h0l50,84h0Z"/>
    <path class="st4" d="M730.5,512h-92.1l-50.1-84s83.3,24.4,142.2,84Z"/>
    <path class="st0" d="M538.6,327.1c-8.4-.8-17.1-1.2-26.3-1-25.3.6-49,5.1-70.6,12l51.5-87.2,45.6,76.2h0Z"/>
  </g>
  <g>
    <path class="st6" d="M110.3,757.9l84.2-189.1h43.3l85,189.2h-46l-69.6-167h17.6l-69.6,167h-44.9ZM152.8,717.4l11.1-33.2h98l11.4,33.2h-120.4Z"/>
    <path class="st6" d="M342.5,757.9v-189.1h82c17,0,31.6,2.8,43.8,8.2,12.3,5.5,21.7,13.4,28.4,23.6,6.7,10.3,10,22.4,10,36.5s-3.3,26.4-10,36.6c-6.7,10.2-16.1,18.1-28.4,23.6-12.3,5.6-26.9,8.4-43.8,8.4h-57.9l20-19.7v71.9h-44.1ZM386.6,690.9l-20-20.8h55.5c13.4,0,23.5-2.9,30.3-8.7,6.9-5.8,10.3-13.9,10.3-24.3s-3.4-18.5-10.3-24.2c-6.9-5.7-17-8.5-30.3-8.5h-55.5l20-20.8v107.3h0Z"/>
    <path class="st6" d="M537.9,757.9v-189.1h143.2v35.1h-99.6v118.9h103.1v35.1h-146.7ZM578.2,679v-34.3h91.2v34.3h-91.2Z"/>
    <path class="st6" d="M696.5,757.9l81.2-112.1v31.9l-77.7-108.9h49.5l53.8,75.7-21.1.5,53.6-76.2h47.4l-77.4,107v-31.3l82,113.5h-50.6l-55.8-80.2h20l-54.9,80.2h-50.1,0Z"/>
  </g>
  <g>
    <path class="st6" d="M168,853.3v-47.4h19.6c6.4,0,11.4,1.5,15,4.5s5.4,7.1,5.4,12.4-.8,6.5-2.4,8.9-4,4.4-7,5.8c-3,1.3-6.6,2-10.9,2h-14.7l3.9-3.9v17.7h-8.9ZM176.9,836.5l-3.9-4.3h14.2c3.9,0,6.9-.8,8.8-2.5s3-4,3-7-1-5.3-3-6.9-4.9-2.5-8.8-2.5h-14.2l3.9-4.3v27.5ZM199.2,853.3l-12.1-17.2h9.5l12.1,17.2h-9.5Z"/>
    <path class="st6" d="M211.1,853.3l21.5-47.4h8.7l21.5,47.4h-9.3l-18.4-42.7h3.5l-18.5,42.7h-9.1,0ZM221,842.3l2.4-6.9h25.7l2.4,6.9h-30.5Z"/>
    <path class="st6" d="M268.9,853.3v-47.4h19.6c4.2,0,7.9.7,10.9,2s5.4,3.3,7,5.8c1.6,2.5,2.5,5.5,2.5,9.1s-.8,6.5-2.5,9-4,4.5-7,5.8c-3,1.4-6.6,2.1-10.9,2.1h-14.7l3.9-4.1v17.7h-8.9ZM277.8,836.5l-3.9-4.3h14.2c3.9,0,6.9-.8,8.8-2.5s3-4,3-6.9-1-5.3-3-6.9-4.9-2.5-8.8-2.5h-14.2l3.9-4.3v27.5h0Z"/>
    <path class="st6" d="M317.7,853.3v-47.4h8.9v47.4h-8.9ZM325.9,833v-7.5h26v7.5h-26ZM351.2,853.3v-47.4h8.8v47.4h-8.8Z"/>
    <path class="st6" d="M372.9,853.3v-47.4h8.9v47.4h-8.9Z"/>
    <path class="st6" d="M416.7,854c-3.7,0-7.1-.6-10.2-1.8-3.1-1.2-5.8-2.9-8.1-5.1-2.3-2.2-4.1-4.8-5.4-7.7-1.3-2.9-1.9-6.2-1.9-9.8s.6-6.8,1.9-9.8,3.1-5.5,5.4-7.7c2.3-2.2,5-3.9,8.1-5.1,3.1-1.2,6.5-1.8,10.2-1.8s7.5.7,10.7,2c3.2,1.3,6,3.3,8.2,5.9l-5.7,5.3c-1.8-1.8-3.7-3.2-5.9-4.2-2.1-.9-4.4-1.4-6.9-1.4s-4.8.4-6.9,1.2-3.9,2-5.4,3.5c-1.5,1.5-2.7,3.2-3.6,5.3s-1.3,4.3-1.3,6.7.4,4.7,1.3,6.7c.9,2,2.1,3.8,3.6,5.3,1.5,1.5,3.3,2.6,5.4,3.5s4.4,1.2,6.9,1.2,4.8-.5,6.9-1.4c2.1-.9,4.1-2.3,5.9-4.2l5.7,5.3c-2.2,2.6-5,4.6-8.2,6-3.2,1.3-6.8,2-10.8,2h0Z"/>
    <path class="st6" d="M152.3,851.5c-3.5,1.2-10.2,3-17.7,3s-16.2-2.3-21.2-7c-4.5-4.2-7-10.3-7-17.2,0-14.4,11.3-25.2,29.5-25.2s12.1,1.4,14.6,2.6l-2.1,7.3c-3.1-1.3-6.8-2.4-12.8-2.4-11.7,0-19.4,6.6-19.4,17s7.4,17.5,19.1,17.5,6.7-.5,8.1-1.2v-11.6h-9.6v-7.2h18.7v24.3h0Z"/>
    <g>
      <path class="st6" d="M495.2,853.4c-3.8,0-7.4-.5-10.8-1.5-3.4-1-6.2-2.3-8.2-3.9l3.1-6.6c1.9,1.4,4.3,2.6,7.2,3.6,2.9,1,5.8,1.4,8.8,1.4s4.6-.3,6.1-.8,2.7-1.2,3.5-2.1c.7-.9,1.1-1.9,1.1-3s-.5-2.5-1.6-3.4-2.4-1.5-4.1-2-3.5-1-5.6-1.4c-2-.4-4.1-.9-6.1-1.5-2-.6-3.9-1.4-5.6-2.3-1.7-.9-3.1-2.2-4.1-3.8-1-1.6-1.5-3.6-1.5-6s.7-4.7,2.1-6.8c1.4-2.1,3.5-3.7,6.4-5s6.5-1.9,10.9-1.9,5.8.3,8.6,1c2.9.7,5.3,1.7,7.5,3l-2.8,6.6c-2.2-1.2-4.4-2.1-6.7-2.7-2.3-.6-4.5-.9-6.6-.9s-4.4.3-6,.8c-1.6.6-2.7,1.3-3.4,2.2-.7.9-1.1,2-1.1,3.1s.5,2.5,1.5,3.4,2.4,1.5,4.1,2,3.5.9,5.6,1.4c2.1.4,4.1.9,6.1,1.5,2,.6,3.9,1.3,5.6,2.3,1.7.9,3.1,2.2,4.1,3.7s1.5,3.5,1.5,5.9-.7,4.7-2.1,6.7c-1.4,2.1-3.5,3.7-6.5,5s-6.5,1.9-11,1.9h0Z"/>
      <path class="st6" d="M546.2,853.4c-3.7,0-7.2-.6-10.4-1.8s-6-2.8-8.3-5c-2.3-2.1-4.2-4.6-5.5-7.5-1.3-2.8-1.9-5.9-1.9-9.3s.6-6.5,1.9-9.3c1.3-2.8,3.1-5.3,5.5-7.4,2.3-2.1,5.1-3.8,8.3-4.9s6.6-1.8,10.4-1.8,7.2.6,10.3,1.7c3.2,1.2,5.9,2.8,8.2,4.9s4.1,4.6,5.4,7.5c1.3,2.9,1.9,6,1.9,9.4s-.6,6.5-1.9,9.3-3.1,5.3-5.4,7.5c-2.3,2.1-5.1,3.8-8.2,4.9-3.2,1.2-6.6,1.7-10.3,1.7h0ZM546.2,845.9c2.4,0,4.7-.4,6.7-1.2,2-.8,3.8-1.9,5.3-3.3s2.7-3.1,3.5-5.1,1.3-4.1,1.3-6.5-.4-4.5-1.2-6.5c-.8-2-2-3.7-3.5-5.1s-3.3-2.5-5.4-3.3-4.3-1.2-6.7-1.2-4.7.4-6.8,1.2c-2.1.8-3.9,1.9-5.4,3.4-1.5,1.5-2.7,3.2-3.6,5.1-.9,1.9-1.3,4.1-1.3,6.4s.4,4.4,1.3,6.4,2.1,3.7,3.6,5.1c1.5,1.5,3.3,2.6,5.4,3.4,2.1.8,4.4,1.2,6.8,1.2h0Z"/>
      <path class="st6" d="M581.7,852.7v-45.6h9v38.4h25.2v7.2h-34.2,0Z"/>
      <path class="st6" d="M643,853.4c-6.6,0-11.7-1.8-15.5-5.3-3.8-3.5-5.6-8.6-5.6-15.3v-25.7h9v25.4c0,4.7,1.1,8.1,3.2,10.2s5.2,3.2,9.1,3.2,6.9-1.1,9-3.2c2.1-2.1,3.2-5.5,3.2-10.2v-25.4h8.8v25.7c0,6.7-1.9,11.8-5.6,15.3s-8.9,5.3-15.5,5.3h0Z"/>
      <path class="st6" d="M685.6,852.7v-38.4h-16v-7.2h41v7.2h-16v38.4h-9Z"/>
      <path class="st6" d="M717.3,852.7v-45.6h9v45.6h-9Z"/>
      <path class="st6" d="M762,853.4c-3.7,0-7.2-.6-10.4-1.8s-6-2.8-8.3-5c-2.3-2.1-4.2-4.6-5.5-7.5-1.3-2.8-1.9-5.9-1.9-9.3s.6-6.5,1.9-9.3c1.3-2.8,3.1-5.3,5.5-7.4,2.3-2.1,5.1-3.8,8.3-4.9,3.2-1.2,6.6-1.8,10.4-1.8s7.2.6,10.3,1.7c3.2,1.2,5.9,2.8,8.2,4.9s4.1,4.6,5.4,7.5c1.3,2.9,1.9,6,1.9,9.4s-.6,6.5-1.9,9.3-3.1,5.3-5.4,7.5c-2.3,2.1-5.1,3.8-8.2,4.9-3.2,1.2-6.6,1.7-10.3,1.7h0ZM762,845.9c2.4,0,4.7-.4,6.7-1.2,2-.8,3.8-1.9,5.3-3.3,1.5-1.4,2.7-3.1,3.5-5.1s1.3-4.1,1.3-6.5-.4-4.5-1.2-6.5c-.8-2-2-3.7-3.5-5.1s-3.3-2.5-5.4-3.3-4.3-1.2-6.7-1.2-4.7.4-6.8,1.2c-2.1.8-3.9,1.9-5.4,3.4-1.5,1.5-2.7,3.2-3.6,5.1-.9,1.9-1.3,4.1-1.3,6.4s.4,4.4,1.3,6.4,2.1,3.7,3.6,5.1c1.5,1.5,3.3,2.6,5.4,3.4,2.1.8,4.4,1.2,6.8,1.2h0Z"/>
      <path class="st6" d="M797.4,852.7v-45.6h7.4l30.3,35.2h-3.7v-35.2h8.8v45.6h-7.4l-30.2-35.2h3.7v35.2h-8.9Z"/>
      <path class="st6" d="M868.2,853.4c-3.8,0-7.4-.5-10.8-1.5-3.4-1-6.2-2.3-8.2-3.9l3.1-6.6c1.9,1.4,4.3,2.6,7.2,3.6,2.8,1,5.8,1.4,8.8,1.4s4.6-.3,6.1-.8c1.6-.5,2.7-1.2,3.5-2.1.7-.9,1.1-1.9,1.1-3s-.5-2.5-1.6-3.4-2.4-1.5-4.1-2c-1.7-.5-3.5-1-5.6-1.4-2-.4-4.1-.9-6.1-1.5-2-.6-3.9-1.4-5.6-2.3s-3.1-2.2-4.1-3.8c-1-1.6-1.5-3.6-1.5-6s.7-4.7,2.1-6.8c1.4-2.1,3.5-3.7,6.4-5s6.5-1.9,10.9-1.9,5.8.3,8.6,1c2.8.7,5.3,1.7,7.5,3l-2.8,6.6c-2.2-1.2-4.4-2.1-6.7-2.7-2.3-.6-4.5-.9-6.6-.9s-4.4.3-6,.8c-1.6.6-2.7,1.3-3.4,2.2-.7.9-1.1,2-1.1,3.1s.5,2.5,1.5,3.4c1,.8,2.4,1.5,4.1,2s3.5.9,5.6,1.4c2.1.4,4.1.9,6.1,1.5s3.9,1.3,5.6,2.3c1.7.9,3.1,2.2,4.1,3.7,1,1.5,1.5,3.5,1.5,5.9s-.7,4.7-2.1,6.7c-1.4,2.1-3.5,3.7-6.5,5s-6.5,1.9-11,1.9h0Z"/>
    </g>
  </g>
</svg>